<?xml version="1.0" standalone="no"?><!DOCTYPE svg PUBLIC "-//W3C//DTD SVG 1.1//EN" "http://www.w3.org/Graphics/SVG/1.1/DTD/svg11.dtd"><svg class="icon" width="200px" height="200.00px" viewBox="0 0 1024 1024" version="1.1" xmlns="http://www.w3.org/2000/svg"><path d="M512 106.666667a405.333333 405.333333 0 1 0 0 810.666666 405.333333 405.333333 0 1 0 0-810.666666z" fill="#01579B" /><path d="M725.333333 443.733333c0-12.8 0-61.866667-32-100.266666-2.133333-2.133333-4.266667-6.4-4.266666-8.533334-2.133333-2.133333-2.133333-4.266667-4.266667-8.533333l-4.266667-6.4-4.266666-6.4c-4.266667-6.4-6.4-10.666667-6.4-10.666667-8.533333-12.8-10.666667-29.866667-2.133334-44.8 2.133333-4.266667 6.4-8.533333 8.533334-12.8-2.133333-2.133333-4.266667-4.266667-6.4-4.266666h-2.133334c-6.4-4.266667-12.8-8.533333-17.066666-12.8l-14.933334-10.666667c-10.666667-6.4-17.066667-8.533333-17.066666-10.666667-14.933333-8.533333-23.466667-23.466667-21.333334-40.533333 2.133333-17.066667 12.8-32 29.866667-36.266667 2.133333 0 6.4-2.133333 10.666667-2.133333l-2.133334-2.133333C597.333333 113.066667 554.666667 106.666667 512 106.666667 354.133333 106.666667 215.466667 198.4 149.333333 330.666667v10.666666c0 153.6 134.4 277.333333 298.666667 277.333334 125.866667 0 232.533333-72.533333 277.333333-174.933334z" fill="#0277BD" /><path d="M640 170.666667s6.4-2.133333 19.2-2.133334h21.333333c8.533333 0 17.066667 2.133333 27.733334 4.266667s21.333333 6.4 32 10.666667 23.466667 10.666667 34.133333 19.2c10.666667 6.4 21.333333 17.066667 32 25.6 10.666667 8.533333 19.2 21.333333 27.733333 32 6.4 12.8 14.933333 23.466667 21.333334 36.266666 6.4 12.8 10.666667 25.6 14.933333 38.4 4.266667 12.8 6.4 25.6 8.533333 36.266667 2.133333 12.8 2.133333 23.466667 2.133334 32v14.933333c0 4.266667 0 8.533333-2.133334 12.8 0 8.533333-2.133333 14.933333-2.133333 21.333334 0 10.666667-2.133333 17.066667-2.133333 17.066666s-4.266667-6.4-8.533334-17.066666c-2.133333-4.266667-6.4-10.666667-8.533333-19.2-2.133333-6.4-6.4-14.933333-10.666667-23.466667-4.266667-8.533333-8.533333-17.066667-12.8-27.733333-4.266667-8.533333-10.666667-19.2-14.933333-29.866667-4.266667-10.666667-10.666667-19.2-17.066667-29.866667-6.4-10.666667-12.8-19.2-19.2-27.733333-6.4-8.533333-12.8-19.2-21.333333-25.6-8.533333-8.533333-14.933333-17.066667-23.466667-23.466667-6.4-8.533333-14.933333-14.933333-23.466666-21.333333-8.533333-6.4-14.933333-12.8-23.466667-17.066667-6.4-6.4-14.933333-10.666667-21.333333-14.933333-6.4-4.266667-12.8-8.533333-17.066667-10.666667-6.4-6.4-12.8-10.666667-12.8-10.666666z" fill="#FFF176" /><path d="M919.466667 375.466667c-6.4-46.933333-25.6-89.6-46.933334-119.466667-10.666667-14.933333-21.333333-25.6-27.733333-32-8.533333-6.4-12.8-10.666667-12.8-10.666667s0 6.4 2.133333 17.066667 2.133333 23.466667 4.266667 40.533333c2.133333 8.533333 2.133333 17.066667 4.266667 25.6-8.533333-12.8-19.2-25.6-29.866667-34.133333-10.666667-10.666667-23.466667-17.066667-29.866667-21.333333-10.666667-4.266667-14.933333-6.4-14.933333-6.4s2.133333 4.266667 4.266667 12.8c2.133333 8.533333 6.4 19.2 10.666666 34.133333 4.266667 14.933333 10.666667 34.133333 17.066667 53.333333-12.8-14.933333-25.6-27.733333-38.4-36.266666-14.933333-8.533333-27.733333-14.933333-38.4-17.066667-12.8-4.266667-19.2-4.266667-19.2-4.266667s4.266667 4.266667 8.533333 12.8c2.133333 4.266667 6.4 8.533333 8.533334 14.933334 4.266667 6.4 6.4 12.8 10.666666 19.2 6.4 12.8 14.933333 27.733333 21.333334 44.8 4.266667 8.533333 6.4 17.066667 10.666666 25.6 2.133333 8.533333 8.533333 17.066667 10.666667 27.733333 4.266667 8.533333 6.4 17.066667 10.666667 27.733333 2.133333 8.533333 6.4 17.066667 8.533333 27.733334 2.133333 8.533333 6.4 17.066667 8.533333 25.6 2.133333 8.533333 4.266667 17.066667 8.533334 23.466666 6.4 14.933333 10.666667 27.733333 14.933333 36.266667l6.4 12.8s2.133333-4.266667 6.4-14.933333c2.133333-4.266667 4.266667-10.666667 4.266667-17.066667 2.133333-6.4 4.266667-14.933333 4.266666-23.466667 0-6.4 2.133333-12.8 2.133334-19.2 2.133333 6.4 4.266667 10.666667 4.266666 10.666667l6.4-12.8c2.133333-4.266667 4.266667-8.533333 6.4-14.933333v-2.133334c0 4.266667 0 10.666667 2.133334 14.933334 0 8.533333 2.133333 14.933333 2.133333 21.333333v19.2c0 10.666667 2.133333 17.066667 2.133333 17.066667s4.266667-4.266667 10.666667-12.8c2.133333-4.266667 6.4-8.533333 10.666667-14.933334 4.266667-6.4 6.4-12.8 10.666666-21.333333s6.4-17.066667 8.533334-27.733333l6.4-32c2.133333-10.666667 2.133333-23.466667 2.133333-34.133334 2.133333-12.8 0-25.6-2.133333-36.266666z" fill="#FDD835" /><path d="M940.8 422.4c0-10.666667-2.133333-17.066667-2.133333-17.066667s-4.266667 6.4-10.666667 14.933334c-6.4 10.666667-12.8 23.466667-21.333333 40.533333-6.4 14.933333-14.933333 32-23.466667 49.066667 0-17.066667 0-32-2.133333-46.933334-2.133333-12.8-4.266667-23.466667-6.4-34.133333-4.266667-10.666667-6.4-21.333333-10.666667-29.866667-6.4-19.2-14.933333-32-21.333333-42.666666-6.4-10.666667-10.666667-14.933333-10.666667-14.933334s-2.133333 25.6-2.133333 64c0 19.2-2.133333 38.4-4.266667 61.866667 0 10.666667-2.133333 21.333333-2.133333 34.133333 0 10.666667-2.133333 23.466667-4.266667 34.133334v8.533333c-2.133333-19.2-8.533333-38.4-17.066667-51.2-6.4-14.933333-14.933333-25.6-21.333333-32-8.533333-10.666667-12.8-12.8-12.8-12.8v14.933333c0 8.533333 0 21.333333-2.133333 36.266667-2.133333 27.733333-6.4 64-10.666667 98.133333-2.133333 8.533333-4.266667 17.066667-4.266667 25.6-2.133333 8.533333-4.266667 17.066667-4.266666 25.6-2.133333 8.533333-4.266667 17.066667-6.4 23.466667-2.133333 8.533333-4.266667 14.933333-4.266667 21.333333-2.133333 6.4-2.133333 14.933333-4.266667 19.2-2.133333 6.4-2.133333 10.666667-4.266666 17.066667-2.133333 10.666667-2.133333 17.066667-2.133334 17.066667s4.266667-2.133333 12.8-8.533334c8.533333-6.4 19.2-12.8 29.866667-25.6 4.266667-6.4 10.666667-12.8 17.066667-21.333333 4.266667-8.533333 10.666667-14.933333 14.933333-23.466667 0 6.4-2.133333 12.8-2.133333 19.2-2.133333 6.4-2.133333 14.933333-4.266667 19.2-4.266667 12.8-4.266667 19.2-4.266667 19.2 2.133333-2.133333 8.533333 0 14.933334 2.133334 0 2.133333-2.133333 4.266667-2.133334 4.266666l-6.4 19.2c-4.266667 10.666667-6.4 17.066667-6.4 17.066667s6.4-2.133333 14.933334-8.533333c4.266667-4.266667 10.666667-6.4 17.066666-12.8 6.4-4.266667 12.8-10.666667 19.2-19.2 6.4-6.4 12.8-14.933333 21.333334-23.466667 6.4-8.533333 12.8-19.2 19.2-29.866667 12.8-21.333333 23.466667-44.8 32-68.266666 8.533333-23.466667 17.066667-49.066667 21.333333-72.533334 4.266667-23.466667 6.4-44.8 8.533333-64 0-19.2 0-34.133333-2.133333-46.933333z" fill="#FFB300" /><path d="M883.2 648.533333c-8.533333 4.266667-17.066667 12.8-29.866667 21.333334-17.066667 12.8-36.266667 29.866667-55.466666 49.066666 2.133333-6.4 6.4-12.8 8.533333-19.2 6.4-19.2 8.533333-36.266667 10.666667-51.2 0-14.933333 0-27.733333-2.133334-36.266666-2.133333-10.666667-4.266667-14.933333-4.266666-14.933334s-4.266667 4.266667-8.533334 10.666667-12.8 17.066667-21.333333 27.733333-17.066667 25.6-25.6 38.4c-2.133333 2.133333-2.133333 4.266667-4.266667 6.4 4.266667-12.8 4.266667-27.733333 4.266667-40.533333 0-17.066667-4.266667-34.133333-8.533333-46.933333-4.266667-12.8-10.666667-23.466667-14.933334-29.866667-2.133333-4.266667-6.4-8.533333-6.4-8.533333s-2.133333 4.266667-4.266666 12.8c-2.133333 6.4-6.4 17.066667-10.666667 29.866666-4.266667 10.666667-6.4 23.466667-10.666667 38.4-2.133333 6.4-4.266667 12.8-6.4 21.333334-2.133333 6.4-4.266667 12.8-6.4 17.066666-40.533333 40.533333-89.6 51.2-136.533333 53.333334-25.6 0-49.066667-4.266667-70.4-10.666667-32-10.666667-61.866667-29.866667-89.6-55.466667 40.533333 4.266667 78.933333-4.266667 110.933333-19.2l53.333334-34.133333c6.4-2.133333 12.8-2.133333 19.2 0 12.8-2.133333 17.066667-8.533333 12.8-21.333333-6.4-8.533333-17.066667-17.066667-27.733334-23.466667-27.733333-14.933333-55.466667-12.8-85.333333 6.4-27.733333 14.933333-53.333333 12.8-81.066667-2.133333-66.133333-34.133333-40.533333-121.6 29.866667-76.8 4.266667-21.333333-2.133333-44.8-14.933333-68.266667-61.866667-113.066667 8.533333-204.8 32-219.733333-42.666667 4.266667-81.066667 23.466667-115.2 55.466666C104.533333 232.533333 85.333333 445.866667 85.333333 448l25.6-23.466667c-8.533333 23.466667-14.933333 46.933333-17.066666 72.533334-8.533333 83.2 14.933333 164.266667 70.4 245.333333C249.6 851.2 384 917.333333 512 917.333333c145.066667 0 238.933333-53.333333 300.8-121.6l12.8-12.8c12.8-14.933333 25.6-29.866667 36.266667-46.933333 10.666667-14.933333 17.066667-32 23.466666-46.933333 4.266667-14.933333 8.533333-27.733333 10.666667-36.266667V640s-4.266667 2.133333-12.8 8.533333z" fill="#FF9800" /><path d="M256 597.333333c-4.266667-149.333333 91.733333-136.533333 140.8-119.466666-34.133333-6.4-49.066667 25.6-34.133333 55.466666-6.4 0-72.533333-6.4-106.666667 64z m134.4 61.866667c40.533333 4.266667 78.933333-4.266667 110.933333-19.2l53.333334-34.133333c4.266667-2.133333 10.666667-2.133333 14.933333 0-61.866667-36.266667-128 40.533333-273.066667 17.066666 36.266667 27.733333 93.866667 36.266667 93.866667 36.266667z m-4.266667-349.866667c-4.266667 32 2.133333 70.4 23.466667 110.933334C439.466667 403.2 469.333333 384 469.333333 384s42.666667-42.666667 0-42.666667c-40.533333 0-68.266667-17.066667-83.2-32z m-166.4-44.8C200.533333 247.466667 170.666667 213.333333 170.666667 170.666667c0 0-51.2 83.2-32 149.333333 19.2-23.466667 46.933333-42.666667 81.066666-55.466667z" fill="#EF6C00" /><path d="M409.6 420.266667C439.466667 403.2 469.333333 384 469.333333 384l8.533334-8.533333-8.533334-12.8h-81.066666c4.266667 19.2 10.666667 38.4 21.333333 57.6z" fill="#FFCC80" /><path d="M469.333333 341.333333c-6.4 0-12.8 0-19.2-2.133333l-2.133333 2.133333s17.066667 27.733333 21.333333 42.666667c0 0 42.666667-42.666667 0-42.666667z" fill="#5D4037" /></svg>