<?xml version="1.0" standalone="no"?><!DOCTYPE svg PUBLIC "-//W3C//DTD SVG 1.1//EN" "http://www.w3.org/Graphics/SVG/1.1/DTD/svg11.dtd"><svg class="icon" width="200px" height="200.00px" viewBox="0 0 1024 1024" version="1.1" xmlns="http://www.w3.org/2000/svg"><path d="M0 512c0 282.624 229.376 512 512 512s512-229.376 512-512S794.624 0 512 0 0 229.376 0 512z" fill="#1DA2F8" /><path d="M512 75.776c-3.584 0-6.144-2.56-6.144-6.144V40.96c0-3.584 2.56-6.144 6.144-6.144s6.144 2.56 6.144 6.144v28.672c0 3.584-2.56 6.144-6.144 6.144z m0 913.408c-3.584 0-6.144-2.56-6.144-6.144v-28.672c0-3.584 2.56-6.144 6.144-6.144s6.144 2.56 6.144 6.144v28.672c0 3.584-2.56 6.144-6.144 6.144zM435.2 82.432c-3.072 0-5.632-2.048-6.144-5.12l-5.12-28.16c-0.512-3.584 1.536-6.656 5.12-7.168 3.584-0.512 6.656 1.536 7.168 5.12l5.12 28.16c0.512 3.584-1.536 6.656-5.12 7.168H435.2z m158.72 899.584c-3.072 0-5.632-2.048-6.144-5.12l-5.12-28.16c-0.512-3.584 1.536-6.656 5.12-7.168 3.584-0.512 6.656 1.536 7.168 5.12l5.12 28.16c0.512 3.584-1.536 6.656-5.12 7.168h-1.024zM360.448 102.4c-2.56 0-5.12-1.536-5.632-4.096L345.088 71.68c-1.024-3.072 0.512-6.656 3.584-8.192 3.072-1.024 6.656 0.512 8.192 3.584l9.728 26.624c1.024 3.072-0.512 6.656-3.584 8.192-1.024 0.512-1.536 0.512-2.56 0.512z m312.832 858.624c-2.56 0-5.12-1.536-5.632-4.096l-9.728-26.624c-1.024-3.072 0.512-6.656 4.096-7.68 3.072-1.024 6.656 0.512 7.68 3.584l9.728 26.624c1.024 3.072-0.512 6.656-3.584 8.192-1.536-0.512-2.048 0-2.56 0zM290.816 135.168c-2.048 0-4.096-1.024-5.632-3.072L270.848 107.52c-1.536-3.072-0.512-6.656 2.048-8.704 3.072-1.536 6.656-0.512 8.704 2.048l14.336 24.576c1.536 3.072 0.512 6.656-2.048 8.704-1.024 0.512-2.048 1.024-3.072 1.024zM747.52 926.208c-2.048 0-4.096-1.024-5.632-3.072l-14.336-24.576c-1.536-3.072-0.512-6.656 2.048-8.704 3.072-1.536 6.656-0.512 8.704 2.048l14.336 24.576c1.536 3.072 0.512 6.656-2.048 8.704-1.024 0.512-2.048 1.024-3.072 1.024zM227.84 179.2c-1.536 0-3.584-0.512-4.608-2.048L204.8 155.136c-2.048-2.56-1.536-6.656 1.024-8.704 2.56-2.048 6.656-1.536 8.704 0.512l18.432 22.016c2.048 2.56 2.048 6.656-0.512 8.704-2.048 1.024-3.584 1.536-4.608 1.536z m586.752 699.904c-1.536 0-3.584-0.512-4.608-2.048l-18.432-22.016c-2.048-2.56-2.048-6.656 1.024-8.704 2.56-2.048 6.656-2.048 8.704 1.024l18.432 22.016c2.048 2.56 2.048 6.656-0.512 8.704-1.536 0.512-3.072 1.024-4.608 1.024zM173.056 233.984c-1.536 0-3.072-0.512-4.096-1.536l-22.016-18.432c-2.56-2.048-3.072-6.144-1.024-8.704s6.144-3.072 8.704-1.024l22.016 18.432c2.56 2.048 3.072 6.144 1.024 8.704-1.024 1.536-2.56 2.56-4.608 2.56z m699.904 587.264c-1.536 0-3.072-0.512-4.096-1.536l-22.016-18.432c-2.56-2.048-3.072-6.144-0.512-8.704 2.048-2.56 6.144-3.072 8.704-0.512l22.016 18.432c2.56 2.048 3.072 6.144 1.024 8.704-1.536 1.024-3.584 2.048-5.12 2.048zM129.024 296.96c-1.024 0-2.048-0.512-3.072-1.024L101.376 281.6c-3.072-1.536-4.096-5.632-2.56-8.704 1.536-3.072 5.632-4.096 8.704-2.56l24.576 14.336c3.072 1.536 4.096 5.632 2.048 8.704-1.024 2.56-3.072 3.584-5.12 3.584z m791.04 456.704c-1.024 0-2.048-0.512-3.072-1.024l-24.576-14.336c-3.072-1.536-4.096-5.632-2.56-8.704 1.536-3.072 5.632-4.096 8.704-2.56l24.576 14.336c3.072 1.536 4.096 5.632 2.048 8.704-1.024 2.56-3.072 3.584-5.12 3.584zM96.256 367.104c-0.512 0-1.536 0-2.048-0.512l-26.624-9.728c-3.072-1.024-5.12-4.608-3.584-8.192 1.024-3.072 4.608-5.12 8.192-3.584l26.624 9.728c3.072 1.024 5.12 4.608 3.584 8.192-1.024 2.048-3.584 4.096-6.144 4.096z m858.624 312.32c-0.512 0-1.536 0-2.048-0.512l-26.624-9.728c-3.072-1.024-5.12-4.608-3.584-8.192 1.024-3.072 4.608-5.12 8.192-3.584l26.624 9.728c3.072 1.024 5.12 4.608 3.584 8.192-1.536 2.56-3.584 4.096-6.144 4.096zM76.288 441.344h-1.024l-28.16-5.12c-3.584-0.512-5.632-4.096-5.12-7.168 0.512-3.584 3.584-5.632 7.168-5.12l28.16 5.12c3.584 0.512 5.632 3.584 5.12 7.168-0.512 3.072-3.072 5.12-6.144 5.12z m899.584 158.72h-1.024l-28.16-5.12c-3.584-0.512-5.632-4.096-5.12-7.168 0.512-3.584 3.584-5.632 7.168-5.12l28.16 5.12c3.584 0.512 5.632 3.584 5.12 7.168-0.512 3.072-3.072 5.12-6.144 5.12z m-906.24-81.92H40.96c-3.584 0-6.144-2.56-6.144-6.144s2.56-6.144 6.144-6.144h28.672c3.584 0 6.144 2.56 6.144 6.144s-2.56 6.144-6.144 6.144z m913.408 0h-28.672c-3.584 0-6.144-2.56-6.144-6.144s2.56-6.144 6.144-6.144h28.672c3.584 0 6.144 2.56 6.144 6.144s-2.56 6.144-6.144 6.144z m-934.912 81.92c-3.584 0-6.144-3.072-6.144-6.144s2.048-5.632 5.12-6.144l28.16-5.12c3.584-0.512 6.656 1.536 7.168 5.12 0.512 3.584-1.536 6.656-5.12 7.168l-28.16 5.12h-1.024z m899.584-158.72c-3.584 0-6.144-3.072-6.144-6.144s2.048-5.632 5.12-6.144l28.16-5.12c3.584-0.512 6.656 1.536 7.168 5.12 0.512 3.584-1.536 6.656-5.12 7.168l-28.16 5.12h-1.024zM69.12 679.424c-3.584 0-6.144-2.56-6.144-6.144 0-2.56 1.536-5.12 4.096-5.632l26.624-9.728c3.072-1.024 6.656 0.512 8.192 3.584 1.024 3.072-0.512 6.656-3.584 8.192l-26.624 9.728h-2.56z m858.624-312.32c-3.584 0-6.144-2.56-6.144-6.144 0-2.56 1.536-5.12 4.096-5.632l26.624-9.728c3.072-1.024 6.656 0.512 8.192 4.096 1.024 3.072-0.512 6.656-3.584 7.68l-26.624 9.728c-1.024-0.512-2.048 0-2.56 0zM103.936 753.664c-3.584 0-6.144-2.56-6.144-6.144 0-2.048 1.024-4.096 3.072-5.632l24.576-14.336c3.072-1.536 6.656-0.512 8.704 2.56 1.536 3.072 0.512 6.656-2.048 8.192L107.52 752.64c-1.024 1.024-2.56 1.024-3.584 1.024zM894.976 296.96c-3.584 0-6.144-2.56-6.144-6.144 0-2.048 1.024-4.096 3.072-5.632l24.576-14.336c3.072-1.536 6.656-1.024 8.704 2.048 1.536 3.072 1.024 6.656-2.048 8.704l-24.576 14.336c-1.024 1.024-2.048 1.024-3.584 1.024zM151.04 821.248c-3.584 0-6.144-2.56-6.144-6.144 0-2.048 1.024-3.584 2.048-4.608l22.016-18.432c2.56-2.048 6.656-1.536 8.704 1.024 2.048 2.56 1.536 6.144-0.512 8.704l-22.016 18.432c-1.024 0.512-2.56 1.024-4.096 1.024zM850.944 233.984c-3.584 0-6.144-2.56-6.144-6.144 0-2.048 1.024-3.584 2.048-4.608l22.016-18.432c2.56-2.048 6.656-1.536 8.704 1.024 2.048 2.56 1.536 6.144-0.512 8.704l-22.016 18.432c-1.024 0.512-2.56 1.024-4.096 1.024z m-641.536 645.12c-3.584 0-6.144-2.56-6.144-6.144 0-1.536 0.512-3.072 1.536-4.096l18.432-22.016c2.048-2.56 6.144-3.072 8.704-0.512 2.56 2.048 3.072 6.144 0.512 8.704l-18.432 22.016c-1.024 1.024-3.072 2.048-4.608 2.048zM796.16 179.2c-3.584 0-6.144-2.56-6.144-6.144 0-1.536 0.512-3.072 1.536-4.096l18.432-22.016c2.048-2.56 6.144-3.072 8.704-0.512 2.56 2.048 3.072 6.144 0.512 8.704l-18.432 22.016c-0.512 1.536-2.56 2.048-4.608 2.048zM276.48 926.208c-3.584 0-6.144-2.56-6.144-6.144 0-1.024 0.512-2.048 1.024-3.072l14.336-24.576c1.536-3.072 5.632-4.096 8.704-2.048 3.072 1.536 4.096 5.632 2.048 8.704l-14.336 24.576c-1.536 1.536-3.584 2.56-5.632 2.56z m456.704-791.04c-3.584 0-6.144-2.56-6.144-6.144 0-1.024 0.512-2.048 1.024-3.072l14.336-24.576c1.536-3.072 5.632-4.096 8.704-2.048 3.072 1.536 4.096 5.632 2.048 8.704l-14.336 24.576c-1.536 1.024-3.584 2.56-5.632 2.56zM350.72 961.024c-3.584 0-6.144-2.56-6.144-6.144 0-0.512 0-1.536 0.512-2.048l9.728-26.624c1.024-3.072 4.608-4.608 8.192-3.584 3.072 1.024 4.608 4.608 3.584 7.68l-9.728 26.624c-1.024 2.048-3.584 4.096-6.144 4.096zM663.552 102.4c-3.584 0-6.144-2.56-6.144-6.144 0-0.512 0-1.536 0.512-2.048l9.728-26.624c1.024-3.072 4.608-5.12 8.192-3.584 3.072 1.024 4.608 4.608 3.584 7.68l-9.728 26.624c-1.536 2.56-3.584 4.096-6.144 4.096zM430.08 982.016c-3.584 0-6.144-2.56-6.144-6.144v-1.024l5.12-28.16c0.512-3.584 4.096-5.632 7.168-5.12 3.584 0.512 5.632 3.584 5.12 7.168l-5.12 28.16c-0.512 3.072-3.072 5.12-6.144 5.12z m158.72-899.584c-3.584 0-6.144-2.56-6.144-6.144v-1.024l5.12-28.16c0.512-3.584 4.096-5.632 7.168-5.12 3.584 0.512 5.632 3.584 5.12 7.168l-5.12 28.16c-0.512 3.072-3.072 5.12-6.144 5.12z m-111.104 40.96c-3.072 0-6.144-2.56-6.144-5.632L464.896 43.52c-0.512-3.584 2.048-6.656 5.632-6.656 3.584-0.512 6.656 2.048 6.656 5.632l6.656 74.752c0.512 3.584-2.048 6.656-5.632 6.656l-0.512-0.512zM552.96 987.648c-3.072 0-6.144-2.56-6.144-5.632l-6.656-74.752c-0.512-3.584 2.048-6.656 5.632-6.656 3.584-0.512 6.656 2.048 6.656 5.632l6.656 74.752c0.512 3.584-2.048 6.656-5.632 6.656h-0.512zM409.6 135.68c-2.56 0-5.12-2.048-6.144-4.608L384 58.88c-1.024-3.584 1.024-6.656 4.608-7.68 3.072-1.024 6.656 1.024 7.68 4.608L415.744 128c1.024 3.584-1.024 6.656-4.608 7.68H409.6z m224.256 837.632c-2.56 0-5.12-2.048-6.144-4.608l-19.456-72.192c-1.024-3.584 1.024-6.656 4.608-7.68 3.072-1.024 6.656 1.024 7.68 4.608l19.456 72.192c1.024 3.584-1.024 6.656-4.608 7.68h-1.536z m-289.28-814.08c-2.56 0-4.608-1.536-5.632-3.584L307.2 87.552c-1.536-3.072 0-6.656 3.072-8.192 3.072-1.536 6.656 0 8.192 3.072l31.744 68.096c1.536 3.072 0 6.656-3.072 8.192-0.512 0.512-1.536 0.512-2.56 0.512z m366.592 785.92c-2.56 0-4.608-1.536-5.632-3.584l-31.744-68.096c-1.536-3.072 0-6.656 3.072-8.192 3.072-1.536 6.656 0 8.192 3.072l31.744 68.096c1.536 3.072 0 6.656-3.072 8.192-1.024 0.512-1.536 0.512-2.56 0.512zM284.672 193.536c-2.048 0-4.096-1.024-5.12-2.56l-43.008-61.44c-2.048-3.072-1.536-6.656 1.536-8.704 3.072-2.048 6.656-1.536 8.704 1.536l43.008 61.44c2.048 3.072 1.536 6.656-1.536 8.704-1.024 1.024-2.048 1.024-3.584 1.024z m497.664 710.656c-2.048 0-4.096-1.024-5.12-2.56l-43.008-61.44c-2.048-3.072-1.536-6.656 1.536-8.704s6.656-1.536 8.704 1.536l43.008 61.44c2.048 3.072 1.536 6.656-1.536 8.704-1.024 0.512-2.56 1.024-3.584 1.024zM231.936 238.08c-1.536 0-3.072-0.512-4.608-2.048L174.592 183.296c-2.56-2.56-2.56-6.656 0-8.704 2.56-2.56 6.144-2.56 8.704 0l52.736 52.736c2.56 2.56 2.56 6.144 0 8.704-1.024 1.536-2.56 2.048-4.096 2.048z m613.376 613.376c-1.536 0-3.072-0.512-4.608-2.048l-52.736-52.736c-2.56-2.56-2.56-6.656 0-8.704 2.56-2.56 6.144-2.56 8.704 0l52.736 52.736c2.56 2.56 2.56 6.144 0 8.704-1.024 1.024-2.56 2.048-4.096 2.048zM187.392 290.816c-1.024 0-2.56-0.512-3.584-1.024l-61.44-43.008c-2.56-2.048-3.584-6.144-1.536-8.704 2.048-2.56 5.632-3.584 8.704-1.536l61.44 43.008c3.072 2.048 3.584 5.632 1.536 8.704-1.024 2.048-3.072 2.56-5.12 2.56zM898.048 788.48c-1.024 0-2.56-0.512-3.584-1.024l-61.44-43.008c-3.072-2.048-3.584-5.632-1.536-8.704 2.048-3.072 5.632-3.584 8.704-1.536l61.44 43.008c3.072 2.048 3.584 5.632 1.536 8.704-1.536 1.536-3.072 2.56-5.12 2.56zM153.088 350.72c-1.024 0-1.536 0-2.56-0.512l-68.096-31.744c-3.072-1.536-4.608-5.12-3.072-8.192 1.536-3.072 5.12-4.608 8.192-3.072l68.096 31.744c3.072 1.536 4.608 5.12 3.072 8.192-1.024 2.048-3.072 3.584-5.632 3.584z m785.92 366.592c-1.024 0-1.536 0-2.56-0.512l-68.096-31.744c-3.072-1.536-4.608-5.12-3.072-8.192 1.536-3.072 5.12-4.608 8.192-3.072l68.096 31.744c3.072 1.536 4.608 5.12 3.072 8.192-1.024 2.048-3.072 3.584-5.632 3.584zM129.536 415.744H128l-72.192-19.456c-3.584-1.024-5.12-4.096-4.608-7.68 1.024-3.072 4.096-5.12 7.68-4.608l72.192 19.456c3.584 1.024 5.12 4.096 4.608 7.68-1.024 2.56-3.584 4.608-6.144 4.608zM967.168 640h-1.536l-72.192-19.456c-3.584-1.024-5.12-4.096-4.608-7.68 1.024-3.072 4.096-5.12 7.68-4.608l72.192 19.456c3.584 1.024 5.12 4.096 4.608 7.68-1.024 3.072-3.584 4.608-6.144 4.608z m-849.92-156.16h-0.512L41.984 477.184c-3.584-0.512-6.144-3.072-5.632-6.656 0.512-3.584 3.072-6.144 6.656-5.632L117.76 471.04c3.584 0.512 6.144 3.072 5.632 6.656 0 3.584-2.56 6.144-6.144 6.144z m864.256 75.264h-0.512L906.24 552.96c-3.584-0.512-6.144-3.072-5.632-6.656 0.512-3.584 3.072-6.144 6.656-5.632l74.752 6.656c3.584 0.512 6.144 3.072 5.632 6.656-0.512 3.072-3.072 5.12-6.144 5.12z m-939.008 0c-3.584 0-6.144-2.56-6.144-6.144 0-3.072 2.56-6.144 5.632-6.144l74.752-6.656c3.584-0.512 6.656 2.048 6.656 5.632 0.512 3.584-2.048 6.656-5.632 6.656l-74.752 6.656h-0.512z m864.256-75.264c-3.584 0-6.144-2.56-6.144-6.144 0-3.072 2.56-6.144 5.632-6.144l74.752-6.656c3.584-0.512 6.656 2.048 6.656 5.632 0.512 3.584-2.048 6.656-5.632 6.656l-74.752 6.656h-0.512zM56.832 640c-3.584 0-6.144-2.56-6.144-6.144 0-3.072 2.048-5.12 4.608-6.144l72.192-19.456c3.072-1.024 6.656 1.024 7.68 4.608 1.024 3.584-1.024 6.656-4.608 7.68l-71.68 19.456h-2.048z m837.632-224.256c-3.584 0-6.144-2.56-6.144-6.144 0-3.072 2.048-5.12 4.608-6.144l72.192-19.456c3.072-1.024 6.656 1.024 7.68 4.608 1.024 3.584-1.024 6.656-4.608 7.68L896 415.744h-1.536zM84.992 717.312c-3.584 0-6.144-2.56-6.144-6.144 0-2.56 1.536-4.608 3.584-5.632l68.096-31.744c3.072-1.536 6.656 0 8.192 3.072 1.536 3.072 0 6.656-3.072 8.192L87.552 716.8c-0.512 0.512-1.536 0.512-2.56 0.512z m785.92-366.592c-3.584 0-6.144-2.56-6.144-6.144 0-2.56 1.536-4.608 3.584-5.632l68.096-31.744c3.072-1.536 6.656 0 8.192 3.072 1.536 3.072 0 6.656-3.072 8.192l-68.096 31.744c-0.512 0.512-1.536 0.512-2.56 0.512zM125.952 788.48c-3.584 0-6.144-2.56-6.144-6.144 0-2.048 1.024-4.096 2.56-5.12l61.44-43.008c3.072-2.048 6.656-1.536 8.704 1.536 2.048 3.072 1.536 6.656-1.536 8.704l-61.44 43.008c-1.024 0.512-2.048 1.024-3.584 1.024z m710.656-497.664c-3.584 0-6.144-2.56-6.144-6.144 0-2.048 1.024-4.096 2.56-5.12l61.44-43.008c3.072-2.048 6.656-1.536 8.704 1.536 2.048 3.072 1.536 6.656-1.536 8.704l-61.44 43.008c-1.024 1.024-2.56 1.024-3.584 1.024zM178.688 851.456c-3.584 0-6.144-2.56-6.144-6.144 0-1.536 0.512-3.072 2.048-4.608l52.736-52.736c2.56-2.56 6.656-2.56 8.704 0 2.56 2.56 2.56 6.144 0 8.704l-52.736 52.736c-1.024 1.536-2.56 2.048-4.608 2.048zM792.064 238.08c-3.584 0-6.144-2.56-6.144-6.144 0-1.536 0.512-3.072 2.048-4.608l52.736-52.736c2.56-2.56 6.656-2.56 8.704 0 2.56 2.56 2.56 6.144 0 8.704l-52.736 52.736c-1.536 1.536-3.072 2.048-4.608 2.048zM241.664 904.192c-3.584 0-6.144-2.56-6.144-6.144 0-1.024 0.512-2.56 1.024-3.584l43.008-61.44c2.048-3.072 5.632-3.584 8.704-1.536 3.072 2.048 3.584 5.632 1.536 8.704l-43.008 61.44c-1.024 1.536-3.072 2.56-5.12 2.56z m497.664-710.656c-3.584 0-6.144-2.56-6.144-6.144 0-1.024 0.512-2.56 1.024-3.584l43.008-61.44c2.048-2.56 6.144-3.584 8.704-1.536 2.56 2.048 3.584 5.632 1.536 8.704l-43.008 61.44c-1.536 2.048-3.072 2.56-5.12 2.56zM312.832 945.152c-3.584 0-6.144-2.56-6.144-6.144 0-1.024 0-2.048 0.512-2.56l31.744-68.096c1.536-3.072 5.12-4.608 8.192-3.072 3.072 1.536 4.608 5.12 3.072 8.192l-31.744 68.096c-1.024 2.048-3.072 3.584-5.632 3.584z m366.592-785.92c-3.584 0-6.144-2.56-6.144-6.144 0-1.024 0-2.048 0.512-2.56l31.744-68.096c1.536-3.072 5.12-4.608 8.192-3.072 3.072 1.536 4.096 5.12 3.072 8.192l-31.744 68.096c-1.024 2.048-3.072 3.584-5.632 3.584z m-289.28 814.08c-3.584 0-6.144-2.56-6.144-6.144v-1.536l19.456-72.192c1.024-3.584 4.096-5.12 7.68-4.608 3.584 1.024 5.12 4.096 4.608 7.68l-19.456 72.192c-1.024 2.56-3.584 4.608-6.144 4.608zM614.4 135.68c-3.584 0-6.144-2.56-6.144-6.144V128l19.456-72.192c1.024-3.072 4.096-5.12 7.68-4.608 3.584 1.024 5.12 4.096 4.608 7.68l-19.456 72.192c-0.512 2.56-3.072 4.608-6.144 4.608zM471.04 987.648c-3.584 0-6.144-2.56-6.144-6.144v-0.512L471.04 906.24c0.512-3.584 3.072-6.144 6.656-5.632 3.584 0.512 6.144 3.072 5.632 6.656l-6.656 74.752c0 3.072-2.56 5.632-5.632 5.632z m75.264-864.256c-3.584 0-6.144-2.56-6.144-6.144v-0.512l6.656-74.752c0.512-3.584 3.072-6.144 6.656-5.632 3.584 0.512 6.144 3.072 5.632 6.656L552.96 117.76c-0.512 3.584-3.072 5.632-6.656 5.632z" fill="#F2F2F2" /><path d="M573.952 573.952L849.92 174.08 450.56 450.048 174.08 849.92l399.872-275.968z" fill="#F2F2F2" /><path d="M573.952 573.952L849.92 174.08 174.08 849.92l399.872-275.968z" fill="#CCCCCC" /><path d="M573.952 573.952L849.92 174.08 450.56 450.048l123.392 123.904z" fill="#FF525D" /><path d="M573.952 573.952L849.92 174.08l-337.92 337.92 61.952 61.952z" fill="#EF4152" /></svg>